<?xml version="1.0" encoding="utf-8"?>
<!DOCTYPE svg PUBLIC "-//W3C//DTD SVG 1.1//EN" "http://www.w3.org/Graphics/SVG/1.1/DTD/svg11.dtd">
<svg version="1.1" xmlns="http://www.w3.org/2000/svg" xmlns:xlink="http://www.w3.org/1999/xlink" x="0px" y="0px"
	 width="511.858px" height="511.775px" viewBox="51.077 141.139 511.858 511.775" xml:space="preserve">
     <style type="text/css">
        .letter-m, .border {
          fill: #FAA63A;
        }
        .background {
          fill: #089ED9;
        }
        .shadow {
          fill: #0B5D7D;
        }
     </style>
    <rect class="border" x="51.077" y="141.139" width="511.858" height="511.775" />
    <rect class="background" x="76.077" y="167.300" width="461.70" height="462.7" />
    <path class="shadow" d="M307.85,629.771c-21.954-26.106-43.911-52.213-65.864-78.321c-20.56-24.45-41.117-48.901-61.677-73.354
        c15.412,0,30.826,0,46.555,0c0-2.674,0-4.483,0-6.292c0-33.818-0.021-67.638,0.063-101.455c0.004-1.828,0.293-4.409,1.477-5.359
        c9.03-7.24,18.704-13.369,30.556-14.877c15.379-1.958,23.123,4.834,23.126,20.27c0.008,33.818,0.002,67.637,0.003,101.455
        c0,1.932,0,3.861,0,5.886c16.117,0,31.547,0,47.556,0c0-2.182,0-4.134,0-6.086c0-33.652-0.025-67.306,0.066-100.956
        c0.006-1.98,0.311-4.775,1.591-5.806c8.88-7.146,18.405-13.188,30.081-14.744c15.264-2.033,23.222,4.845,23.286,20.171
        c0.005,1.167,0.001,2.333,0.001,3.498c0,32.652,0,65.306,0,97.957c0,1.933,0,3.864,0,5.931c16.052,0,31.453,0,47.281,0
        c0-2.059,0-3.853,0-5.646c0-32.984,0.009-65.971-0.005-98.956c-0.004-12.445,0.839-24.969-3.137-37.082
        c1.486,0.937,3.193,1.643,4.428,2.838c26.563,25.738,53.056,51.55,79.604,77.304c8.246,7.999,16.619,15.869,24.934,23.799
        c0.055,9.494,0.156,18.989,0.158,28.484c0.016,51.658,0.008,103.316,0.008,154.975c0,1.976,0,3.949,0,6.212
        c-1.587,0.124-2.861,0.313-4.136,0.313c-74.321,0.015-148.645,0.014-222.965,0.006
        C309.843,629.932,308.847,629.827,307.85,629.771z"/>
    <path class="letter-m" d="M428.809,336.003c3.976,12.113,3.133,24.637,3.137,37.082c0.014,32.985,0.005,65.972,0.005,98.955
        c0,1.794,0,3.589,0,5.646c-15.828,0-31.229,0-47.281,0c0-2.065,0-3.998,0-5.931c0-32.651,0-65.305,0-97.957
        c0-1.166,0.004-2.332-0.001-3.499c-0.064-15.325-8.022-22.203-23.286-20.17c-11.676,1.557-21.201,7.598-30.081,14.744
        c-1.28,1.03-1.585,3.825-1.592,5.806c-0.092,33.65-0.065,67.303-0.065,100.956c0,1.952,0,3.904,0,6.086
        c-16.009,0-31.438,0-47.556,0c0-2.023,0-3.954,0-5.886c0-33.817,0.005-67.637-0.003-101.455
        c-0.003-15.436-7.748-22.228-23.126-20.27c-11.853,1.508-21.525,7.637-30.556,14.877c-1.184,0.95-1.473,3.531-1.477,5.359
        c-0.084,33.817-0.063,67.636-0.063,101.455c0,1.809,0,3.618,0,6.292c-15.729,0-31.143,0-46.555,0
        c-0.312-1.39-0.897-2.777-0.898-4.166c-0.047-50.804-0.039-101.606-0.03-152.408c0-0.979,0.1-1.958,0.168-3.226
        c12.805,0,25.373,0,38.373,0c0.888,6.75,1.787,13.579,2.797,21.258c2.053-1.621,3.43-2.733,4.833-3.812
        c15.966-12.264,33.239-21.89,53.783-22.942c8.137-0.418,16.674,0.63,24.539,2.791c10.657,2.93,17.618,10.899,21.995,21.653
        c3.058-2.182,5.804-4.202,8.609-6.133c16.064-11.053,33.314-18.75,53.275-18.748c17.188,0.003,31.232,5.812,39.914,21.563
        c0.413,0.706,0.826,1.411,1.238,2.116L428.809,336.003z"/>
</svg>
