<?xml version="1.0" encoding="utf-8"?>
<!DOCTYPE svg PUBLIC "-//W3C//DTD SVG 1.1//EN" "http://www.w3.org/Graphics/SVG/1.1/DTD/svg11.dtd">
<svg version="1.1" xmlns="http://www.w3.org/2000/svg" xmlns:xlink="http://www.w3.org/1999/xlink" x="0px" y="0px"
	 width="511.858px" height="511.775px" viewBox="51.077 141.139 511.858 511.775" xml:space="preserve">
     <style type="text/css">
        .letter-m, .border {
          fill: #FAA63A;
        }
        .background {
          fill: #089ED9;
        }
        .shadow {
          fill: #0B5D7D;
        }
     </style>
    <path class="border" d="M562.936,652.915c-170.595,0.008-341.188,0.008-511.858,0.008c0-170.539,0-341.093,0-511.783
        c170.568,0,341.213,0,511.858,0C562.936,311.701,562.936,482.305,562.936,652.915z M307.85,629.771
        c0.997,0.057,1.993,0.161,2.989,0.161c74.32,0.008,148.644,0.009,222.965-0.006c1.273,0,2.549-0.188,4.136-0.313
        c0-2.263,0-4.236,0-6.212c0-51.657,0.008-103.315-0.008-154.975c-0.002-9.495-0.104-18.99-0.158-28.484
        c0.055-0.997,0.158-1.993,0.158-2.989c0.008-88.656,0.008-177.311-0.006-265.967c0-1.265-0.211-2.529-0.306-3.602
        c-154.074,0-307.779,0-461.366,0c0,154.31,0,308.229,0,462.553c1.381,0,2.509,0,3.636,0c74.991,0,149.981,0,224.972-0.008
        C305.857,629.931,306.854,629.827,307.85,629.771z"/>
    <path class="background" d="M307.85,629.771c-0.996,0.057-1.992,0.16-2.988,0.16c-74.99,0.008-149.98,0.008-224.972,0.008
        c-1.127,0-2.255,0-3.636,0c0-154.323,0-308.243,0-462.553c153.587,0,307.292,0,461.366,0c0.095,1.072,0.306,2.337,0.306,3.602
        c0.014,88.656,0.014,177.311,0.006,265.967c0,0.996-0.104,1.992-0.158,2.989c-8.314-7.93-16.688-15.8-24.934-23.799
        c-26.55-25.754-53.041-51.565-79.604-77.304c-1.234-1.195-2.941-1.902-4.428-2.838l0.097,0.038
        c-0.413-0.706-0.827-1.412-1.241-2.118c-8.679-15.749-22.723-21.558-39.912-21.561c-19.961-0.003-37.211,7.694-53.274,18.748
        c-2.808,1.932-5.553,3.952-8.609,6.133c-4.377-10.754-11.338-18.724-21.995-21.653c-7.864-2.162-16.401-3.208-24.539-2.791
        c-20.544,1.054-37.817,10.679-53.783,22.942c-1.403,1.078-2.78,2.19-4.833,3.811c-1.01-7.679-1.909-14.508-2.797-21.257
        c-13,0-25.567,0-38.373,0c-0.069,1.268-0.168,2.245-0.168,3.226c-0.008,50.802-0.017,101.604,0.029,152.408
        c0.001,1.389,0.588,2.776,0.901,4.166c20.558,24.451,41.116,48.903,61.676,73.354C263.939,577.558,285.896,603.664,307.85,629.771
        z"/>
    <path class="shadow" d="M307.85,629.771c-21.954-26.106-43.911-52.213-65.864-78.321c-20.56-24.45-41.117-48.901-61.677-73.354
        c15.412,0,30.826,0,46.555,0c0-2.674,0-4.483,0-6.292c0-33.818-0.021-67.638,0.063-101.455c0.004-1.828,0.293-4.409,1.477-5.359
        c9.03-7.24,18.704-13.369,30.556-14.877c15.379-1.958,23.123,4.834,23.126,20.27c0.008,33.818,0.002,67.637,0.003,101.455
        c0,1.932,0,3.861,0,5.886c16.117,0,31.547,0,47.556,0c0-2.182,0-4.134,0-6.086c0-33.652-0.025-67.306,0.066-100.956
        c0.006-1.98,0.311-4.775,1.591-5.806c8.88-7.146,18.405-13.188,30.081-14.744c15.264-2.033,23.222,4.845,23.286,20.171
        c0.005,1.167,0.001,2.333,0.001,3.498c0,32.652,0,65.306,0,97.957c0,1.933,0,3.864,0,5.931c16.052,0,31.453,0,47.281,0
        c0-2.059,0-3.853,0-5.646c0-32.984,0.009-65.971-0.005-98.956c-0.004-12.445,0.839-24.969-3.137-37.082
        c1.486,0.937,3.193,1.643,4.428,2.838c26.563,25.738,53.056,51.55,79.604,77.304c8.246,7.999,16.619,15.869,24.934,23.799
        c0.055,9.494,0.156,18.989,0.158,28.484c0.016,51.658,0.008,103.316,0.008,154.975c0,1.976,0,3.949,0,6.212
        c-1.587,0.124-2.861,0.313-4.136,0.313c-74.321,0.015-148.645,0.014-222.965,0.006
        C309.843,629.932,308.847,629.827,307.85,629.771z"/>
    <path class="letter-m" d="M428.809,336.003c3.976,12.113,3.133,24.637,3.137,37.082c0.014,32.985,0.005,65.972,0.005,98.955
        c0,1.794,0,3.589,0,5.646c-15.828,0-31.229,0-47.281,0c0-2.065,0-3.998,0-5.931c0-32.651,0-65.305,0-97.957
        c0-1.166,0.004-2.332-0.001-3.499c-0.064-15.325-8.022-22.203-23.286-20.17c-11.676,1.557-21.201,7.598-30.081,14.744
        c-1.28,1.03-1.585,3.825-1.592,5.806c-0.092,33.65-0.065,67.303-0.065,100.956c0,1.952,0,3.904,0,6.086
        c-16.009,0-31.438,0-47.556,0c0-2.023,0-3.954,0-5.886c0-33.817,0.005-67.637-0.003-101.455
        c-0.003-15.436-7.748-22.228-23.126-20.27c-11.853,1.508-21.525,7.637-30.556,14.877c-1.184,0.95-1.473,3.531-1.477,5.359
        c-0.084,33.817-0.063,67.636-0.063,101.455c0,1.809,0,3.618,0,6.292c-15.729,0-31.143,0-46.555,0
        c-0.312-1.39-0.897-2.777-0.898-4.166c-0.047-50.804-0.039-101.606-0.03-152.408c0-0.979,0.1-1.958,0.168-3.226
        c12.805,0,25.373,0,38.373,0c0.888,6.75,1.787,13.579,2.797,21.258c2.053-1.621,3.43-2.733,4.833-3.812
        c15.966-12.264,33.239-21.89,53.783-22.942c8.137-0.418,16.674,0.63,24.539,2.791c10.657,2.93,17.618,10.899,21.995,21.653
        c3.058-2.182,5.804-4.202,8.609-6.133c16.064-11.053,33.314-18.75,53.275-18.748c17.188,0.003,31.232,5.812,39.914,21.563
        c0.413,0.706,0.826,1.411,1.238,2.116L428.809,336.003z"/>
</svg>
