<svg version="1" xmlns="http://www.w3.org/2000/svg" width="933.333" height="933.333" viewBox="0 0 700.000000 700.000000"><path d="M35 351.9v315.8l314.6.8c207.3.5 314.9.4 315.5-.2.7-.7.8-108.7.3-316.7L664.7 36H35v315.9zm302.9-115.3c4.1.9 9.8 2.5 12.8 3.6 7.5 2.7 17.1 11.9 21.5 20.3 1.8 3.6 3.6 6.5 4 6.5.3 0 5.6-3.4 11.7-7.5 31.5-21.3 61.8-29.4 88.9-23.9 21 4.2 37.4 19.3 41.8 38.4 1.6 6.8 1.8 16.1 2.1 96.7l.4 89.3H456l-.2-78.8-.3-78.8-2.6-4.9c-8.4-16.4-33.5-16-59.4 1-14 9.3-12.5-1.1-12.5 86.1V460h-65v-76.3c0-82.5.1-81.5-5.4-89.7-7-10.6-26.1-11.4-46.1-2-4.4 2.1-11.4 6.3-15.6 9.4-6.6 4.8-7.7 6-8.3 9.3-.3 2.1-.6 36.8-.6 77V461h-63.7l-.7-3.1c-.3-1.7-.6-51-.6-109.5V242l26.8.2 26.7.3 1.9 14.2 1.8 14.2 6.2-4.8c23.7-18.7 45.1-28.1 71.1-31.5 5-.7 20.6.5 28.4 2z"/></svg>