<?xml version="1.0" encoding="iso-8859-1"?>
<!DOCTYPE svg PUBLIC "-//W3C//DTD SVG 1.1//EN" "http://www.w3.org/Graphics/SVG/1.1/DTD/svg11.dtd">
<svg version="1.1" id="Layer_1" xmlns="http://www.w3.org/2000/svg" xmlns:xlink="http://www.w3.org/1999/xlink" x="0px" y="0px"
	 width="39.005px" height="38.255px" viewBox="0 0 39.005 38.255" style="enable-background:new 0 0 39.005 38.255;"
	 xml:space="preserve">
    <path style="fill-rule:evenodd;clip-rule:evenodd;fill:#FDFDFD;" d="M20.375,24.565c-3.273,3.272-6.335,6.334-9.43,9.43
        c-1.659-0.689-2.407-2.015-3.774-3.113c3.011-3.424,6.353-6.355,9.607-9.852c-1.421-1.674-3.046-3.163-4.596-4.711
        c-1.581-1.579-3.211-3.108-4.882-4.72c0.649-1.564,1.976-2.312,3.073-3.679c3.425,3.011,6.355,6.353,9.852,9.607
        c1.674-1.421,3.151-3.057,4.714-4.593c1.593-1.566,3.163-3.157,4.84-4.834c1.441,0.598,2.188,1.924,3.555,3.021
        c-3.011,3.426-6.353,6.356-9.607,9.853c1.421,1.674,3.058,3.151,4.593,4.714c1.566,1.593,3.157,3.163,4.834,4.84
        c-0.599,1.441-1.924,2.188-3.021,3.555C26.707,31.074,23.777,27.731,20.375,24.565z"/>
</svg>
