<?xml version="1.0" encoding="utf-8"?>
<!DOCTYPE svg PUBLIC "-//W3C//DTD SVG 1.1//EN" "http://www.w3.org/Graphics/SVG/1.1/DTD/svg11.dtd">
<svg version="1.1" xmlns="http://www.w3.org/2000/svg" xmlns:xlink="http://www.w3.org/1999/xlink" x="0px" y="0px"
	 width="511.858px" height="511.775px" viewBox="51.077 141.139 511.858 511.775" xml:space="preserve">
     <style type="text/css">
        .letter-m, .border {
          fill: rgb(200, 200, 200);
        }
        .background {
          fill: rgb(50, 50, 60);
        }
        .shadow {
          fill: rgba(200, 200, 200, 0.5);
        }
     </style>
    <rect class="border" x="51.077" y="141.139" width="511.858" height="511.775" />
    <rect class="background" x="76.077" y="167.300" width="461.70" height="462.7" />
    <path class="shadow" d="M180.4,478l127.5,151.93l229.6,0l0,-190l-109,-104l-200,15z" />
    <path class="letter-m" d="M428.809,336.003c3.976,12.113,3.133,24.637,3.137,37.082c0.014,32.985,0.005,65.972,0.005,98.955
        c0,1.794,0,3.589,0,5.646c-15.828,0-31.229,0-47.281,0c0-2.065,0-3.998,0-5.931c0-32.651,0-65.305,0-97.957
        c0-1.166,0.004-2.332-0.001-3.499c-0.064-15.325-8.022-22.203-23.286-20.17c-11.676,1.557-21.201,7.598-30.081,14.744
        c-1.28,1.03-1.585,3.825-1.592,5.806c-0.092,33.65-0.065,67.303-0.065,100.956c0,1.952,0,3.904,0,6.086
        c-16.009,0-31.438,0-47.556,0c0-2.023,0-3.954,0-5.886c0-33.817,0.005-67.637-0.003-101.455
        c-0.003-15.436-7.748-22.228-23.126-20.27c-11.853,1.508-21.525,7.637-30.556,14.877c-1.184,0.95-1.473,3.531-1.477,5.359
        c-0.084,33.817-0.063,67.636-0.063,101.455c0,1.809,0,3.618,0,6.292c-15.729,0-31.143,0-46.555,0
        c-0.312-1.39-0.897-2.777-0.898-4.166c-0.047-50.804-0.039-101.606-0.03-152.408c0-0.979,0.1-1.958,0.168-3.226
        c12.805,0,25.373,0,38.373,0c0.888,6.75,1.787,13.579,2.797,21.258c2.053-1.621,3.43-2.733,4.833-3.812
        c15.966-12.264,33.239-21.89,53.783-22.942c8.137-0.418,16.674,0.63,24.539,2.791c10.657,2.93,17.618,10.899,21.995,21.653
        c3.058-2.182,5.804-4.202,8.609-6.133c16.064-11.053,33.314-18.75,53.275-18.748c17.188,0.003,31.232,5.812,39.914,21.563
        c0.413,0.706,0.826,1.411,1.238,2.116L428.809,336.003z"/>
</svg>
