<?xml version="1.0" encoding="iso-8859-1"?>
<!DOCTYPE svg PUBLIC "-//W3C//DTD SVG 1.1//EN" "http://www.w3.org/Graphics/SVG/1.1/DTD/svg11.dtd">
<svg version="1.1" id="Layer_1" xmlns="http://www.w3.org/2000/svg" xmlns:xlink="http://www.w3.org/1999/xlink" x="260px" y="360px"
	 width="100px" height="70px" viewBox="260 360 100 70" style="enable-background:new 0 0 612 792;" xml:space="preserve">
<g>
	<g>
		<path style="fill-rule:evenodd;clip-rule:evenodd;fill:#F6A643;" d="M316.648,366.181c6.85,0.315,13.509,4.358,17.114,12.538
			c3.523,7.994,1.871,15.563-3.874,21.896c-5.987,6.599-13.684,8.614-22.14,5.739c-2.58-0.877-3.815-0.221-5.405,1.35
			c-4.354,4.3-8.813,8.492-13.167,12.79c-1.41,1.392-2.99,2.264-4.955,2.251c-2.601-0.018-4.566-1.191-5.648-3.598
			c-1.089-2.424-0.71-4.557,1.293-6.443c4.726-4.451,9.353-9.01,14.103-13.436c1.417-1.32,1.94-2.318,1.082-4.403
			C289.144,380.512,298.992,366.155,316.648,366.181z M327.616,386.313c-0.047-7.357-6.089-13.37-13.365-13.3
			c-7.305,0.07-13.136,6.093-13.121,13.555c0.015,7.677,5.917,13.973,13.178,14.056
			C321.628,400.708,327.666,394.215,327.616,386.313z"/>
	</g>
</g>
</svg>
